<svg t="1649739346728" class="icon" viewBox="0 0 1024 1024" version="1.1" xmlns="http://www.w3.org/2000/svg" p-id="4408" width="20" height="20"><path d="M981.333333 917.333333a21.333333 21.333333 0 0 1-21.333333 21.333334H64a21.333333 21.333333 0 0 1 0-42.666667h896a21.333333 21.333333 0 0 1 21.333333 21.333333zM533.333333 170.666667h426.666667a21.333333 21.333333 0 0 0 0-42.666667H533.333333a21.333333 21.333333 0 0 0 0 42.666667z m426.666667 341.333333H533.333333a21.333333 21.333333 0 0 0 0 42.666667h426.666667a21.333333 21.333333 0 0 0 0-42.666667zM62.833333 593.12a37.213333 37.213333 0 0 0 38.713334-2.666667l309.333333-218.633333a37.333333 37.333333 0 0 0 0-60.973333l-309.333333-218.633334A37.333333 37.333333 0 0 0 42.666667 122.7V560a37.2 37.2 0 0 0 20.166666 33.12z" fill="#333333" p-id="4409"></path></svg>