<svg t="1649739873917" class="icon" viewBox="0 0 1024 1024" version="1.1" xmlns="http://www.w3.org/2000/svg" p-id="7669" width="20" height="20"><path d="M616.533333 156.8a53.333333 53.333333 0 0 0-48.426666-2.986667l-307.626667 137.6h-85.333333A88.533333 88.533333 0 0 0 85.333333 378.24v267.52a88.533333 88.533333 0 0 0 90.026667 86.826667h85.333333l307.626667 137.6a52.906667 52.906667 0 0 0 48.426667-2.986667A48 48 0 0 0 640 826.026667V197.973333a48 48 0 0 0-23.466667-41.173333zM578.346667 810.666667l-293.973334-132.48a52.48 52.48 0 0 0-21.333333-4.48H175.36a28.373333 28.373333 0 0 1-28.373333-27.946667V378.24a28.373333 28.373333 0 0 1 28.373333-27.946667h87.68a52.48 52.48 0 0 0 21.333333-4.48L578.346667 213.333333zM715.946667 366.506667a32 32 0 0 0-4.906667 45.013333 159.573333 159.573333 0 0 1 0 200.96 32 32 0 0 0 49.92 40.106667 223.573333 223.573333 0 0 0 0-281.173334 32 32 0 0 0-45.013333-4.906666z" p-id="7670" fill="#333333"></path><path d="M868.266667 301.44a32 32 0 1 0-51.2 38.4 286.08 286.08 0 0 1 0 344.32 32 32 0 0 0 6.4 44.8 32.426667 32.426667 0 0 0 19.2 6.4 31.786667 31.786667 0 0 0 25.6-12.8 350.08 350.08 0 0 0 0-421.12z" p-id="7671" fill="#333333"></path></svg>